<?xml version="1.0" standalone="no"?>
<!DOCTYPE svg PUBLIC "-//W3C//DTD SVG 20010904//EN"
 "http://www.w3.org/TR/2001/REC-SVG-20010904/DTD/svg10.dtd">
<svg version="1.0" xmlns="http://www.w3.org/2000/svg"
 width="584.000000pt" height="584.000000pt" viewBox="0 0 584.000000 584.000000"
 preserveAspectRatio="xMidYMid meet">
<metadata>
Created by potrace 1.14, written by Peter Selinger 2001-2017
</metadata>
<g transform="translate(0.000000,584.000000) scale(0.100000,-0.100000)"
fill="#000000" stroke="none">
<path d="M4030 5544 c-489 -59 -1013 -226 -1565 -499 -115 -57 -268 -137 -339
-178 -111 -63 -132 -79 -142 -108 -280 -781 -522 -1511 -697 -2109 -200 -682
-427 -1593 -497 -2000 -35 -203 -34 -190 -17 -190 38 0 427 113 672 194 1359
454 2533 1167 2795 1699 66 134 83 250 55 382 -23 107 -59 171 -144 255 -142
141 -293 193 -618 214 -106 7 -195 15 -198 18 -3 3 75 61 172 128 766 532
1160 916 1348 1312 76 161 98 251 99 408 1 102 -3 149 -16 191 -48 154 -175
246 -395 284 -107 19 -354 18 -513 -1z m-561 -885 c157 -33 214 -184 135 -359
-101 -225 -508 -597 -926 -846 -99 -60 -367 -188 -375 -181 -2 2 24 76 58 163
89 233 289 769 344 921 l47 131 96 40 c118 49 262 95 362 116 131 27 187 31
259 15z m-635 -1950 c79 -14 137 -41 186 -85 159 -144 91 -377 -173 -593 -138
-112 -394 -268 -603 -366 -85 -40 -363 -155 -375 -155 -4 0 -5 8 -3 18 2 9 20
103 39 207 41 214 83 394 125 529 38 126 100 289 113 303 7 6 51 28 99 47 224
90 437 124 592 95z"/>
<path d="M3300 4445 c-88 -15 -194 -45 -301 -86 -61 -23 -79 -35 -88 -57 -20
-52 -211 -575 -211 -579 0 -8 117 78 137 100 11 12 46 94 77 182 71 199 92
236 148 263 60 28 232 81 289 88 44 6 49 9 64 47 13 33 14 42 3 48 -16 11 -24
10 -118 -6z"/>
<path d="M2583 2496 c-71 -14 -131 -31 -230 -68 l-53 -19 -49 -152 c-52 -161
-108 -384 -98 -393 4 -5 62 22 94 44 7 4 24 53 38 107 40 157 75 253 102 286
58 68 210 113 386 114 l118 0 -3 25 c-7 56 -157 84 -305 56z"/>
<path d="M5064 5487 c69 -102 97 -204 103 -362 8 -206 -27 -362 -127 -570
-164 -338 -498 -701 -995 -1079 -67 -50 -122 -95 -124 -100 -1 -5 28 -20 64
-34 l67 -23 31 35 c18 20 78 71 134 114 421 324 732 669 898 997 97 191 135
346 135 548 0 220 -51 364 -171 482 l-60 60 45 -68z"/>
<path d="M4363 3085 c98 -129 144 -257 154 -420 10 -184 -38 -348 -156 -526
-332 -503 -1310 -1116 -2481 -1557 -426 -161 -778 -266 -1202 -362 -54 -12
-98 -25 -98 -29 0 -5 9 -20 21 -35 17 -21 29 -26 65 -26 151 0 846 199 1304
373 985 374 1804 848 2266 1312 267 268 372 491 361 770 -7 202 -67 343 -206
485 l-73 75 45 -60z"/>
</g>
</svg>
